<?xml version="1.0" encoding="UTF-8"?>
<svg id="Layer_2" data-name="Layer 2" xmlns="http://www.w3.org/2000/svg" viewBox="0 0 1847.25 353.67">
  <defs>
    <style>
      .cls-1 {
        fill: #fff;
      }
    </style>
  </defs>
  <g id="Layer_1-2" data-name="Layer 1">
    <g>
      <g>
        <path class="cls-1" d="M1718.92,307.21c.11-.49.97.15.76-.51-.06-.18-.5-.84-.64-.9l-.51.77-.39-1.54-.5.26-.14-1.02.77.77c.19.04.17-.27.12-.38-.11-.24-2.81-2.87-3.22-3.2-2.7-2.17-6.24-2.95-9.62-3.33.65-2.16.28-4.32.49-6.56.05-.49.4-.82.42-1.07.64-6.27-4.74-11.8-10.38-13.59-1.35-.43-5.31-.8-5.97-1.46-1.42-1.44.87-3.24,1.17-4.75.65-3.22-.92-5-3.75-6.17,1.75-1.37,3.23-3.5,1.64-5.63-.49-.66-1.27-.84-1.66-1.55,3.48-1.68,4.13-7.22-.01-8.48-.32-.44,1.78-2.13,1.44-3.55-5.34,0-10.68-.19-15.83-1.33,0,0,0,.02.01.02l-.02-.03c-.32-.07-.65-.14-.97-.22-.52.52-1.79.11-2.22,1.02-.91,1.91,1.45,3.2,1.41,3.72-4.02,1.84-4.18,6.91-.24,8.86-.04.87-1,.81-1.6,1.6-.86,1.13-.94,2.47-.23,3.72.45.79,1.78,1.29,1.58,1.98-1.52.96-2.38.94-3.11,2.8-.6,1.53-.65,2.63.09,4.13.6,1.22,2.82,3.13,1.02,4.41-4.67.23-10.43,2.07-13.35,5.92-.52.68-1.86,4.28-2.13,5.31-.99,3.8-.32,7.25.87,10.81.11.34.61,0,.51.43l-.99-.03-.55-1.25-.24,1.17c-5.71.62-10.47,3.16-13.34,8.23.04,1.03.97-1.03,1.15-.9.26.61-1.07,1.8-1.12,2.49l.74.72-.26.65-.76-.26c-.58,1.46-1.7,3.44-.77,4.88-.6-.26-.55,1.25-.49,1.64.14.9.55,2.03,1.27,2.6l-.76.39.02.49c1.37.84,1.41,4.17,3.32,4.38l-.51.38c1.35.7.94,1.17,1.38,2.08.43.9,1.09.35,1.15.39.07.04.1.44.31.57.83.5,1.34.8,2.29.42l-.77,1.02,1.54-.26c-.72-1.3-2.08-1.98-3.06-2.97-1.06-1.08-2.57-2.68-3.03-3.83-.31-.78.07-1.82-1.11-1.92l.5-.36c-2.81-6.62,3.04-15.3,9.42-17.29.98-.31,2.35-.81,3.28-.36.06-.66,2.11-.31,2.73-.17,1.59.36,4.79,2.14,5.87,3.37.75.86.53,1.63,1.14,2.45l.38-.51c-.18.78-.24,2.16.52,2.44-.92.16-.14.76-.27,1.25-.05.18-.4.17-.42.22-.06.2.18.44-.05.85-.78,1.4-2.7,2.93-4.39,2.7-.06.44.61.27.89.25,4.17-.32,5.83-3.42,5.51-7.32-.1-1.16-.85-2.35-.26-3.47l-1.28-.13,5.38-1.3c1.98-.86,3.69-2.01,5-3.73l.13.77.76-.65-.49-.74c4.97-7.41-.15-18.23-9.64-17.31-7.82.76-12.44,11.74-7.19,17.7,2.96,3.35,7.1,3.36,10.91,1.52.17.64-.53.57-.7.85-.14.23-.03.65-.06.69-.08.08-.59-.23-.86-.19-.37.06-.91.81-1.31.71-.34-.09-.23-.84-.65-.77v1.03c-.99-.47-2.14.08-3.2.02-2.76-.14-5.3-3.25-6.71-5.39-.12-.18-.53-.23-.57-.3-.12-.21.54-2.55-.57-2.66l.52-.26-.51-.52c-.08-.23.43-.02.5-.29.17-.68-.06-2.99.06-3.31.05-.14.44-.09.47-.3.16-1.34.87-2.9,1.61-4.12.11-.19.81-.55.87-.67.16-.36,0-.82.08-.96.01-.03.35.27.63.01.3-.29.42-.95.74-1.22.18-.16,2.14-1.34,2.47-1.51,9.82-5.1,18.46,5.44,15.43,14.75,1.37-.15,1.26.71,1.27,1.92.03,2.87-.81,5.92-2.28,8.36-.12,1.22-.93,2.23-1.41,3.34l-.5-.5c-1.95,3.02-4.15,6.66-6.79,9.13-3.54,3.31-9.88,6.76-14.76,5.3-4.27-1.27-6.89-4.73-6.55-9.25l-.5,2.82c-.13-.79.17-1.94,0-2.66-.06-.25-.78-.03-.52-.68l.75-.15c-.16-1.38,1.49-4.5,2.44-5.5,1.85-1.96,6.04-3.28,8.59-2.07.16.76-.67.51-1.14,1.04-1.13,1.26-1.04,3.32-.64,4.87.7-.22-.12-1.48.01-1.9.1-.31.57-.33.67-.47.06-.09-.14-.4.06-.58.65-.57,2.81-1.02,3.69-.85,1.75.33,1.74,4.52-.33,4.56.96-1.14,1-2.78,0-3.92-.65-.75-2.4.13-2.57,1.25-.6,3.95,5.97,4.91,6.26.65.4-5.9-7.53-8.67-12.38-7.28-11.26,3.25-11.57,20.34-.53,24.59,10.39,3.99,19.77-5.49,24.81-13.45,1.56-2.46,2.72-5.22,4.4-7.53-.04.61.21.56.77.51v-.77c1.82,1.75,2.61,4.45,4.01,6.65,2.75,4.31,9.22,11.89,13.88,13.83,7.84,3.27,18.22.87,19.6-8.62.12-.79.24-1.43.36-2.14.27-1.69-.85-2.8-.85-2.97,0-5.01-3.68-8.41-8.2-10.08-4.83-1.79-11.14.26-12.45,5.65-.58,2.38.81,4.03,3.1,4.51.3.06,1.56.3,1.61-.2-1.96-.21-2.72-2.06-2.57-3.85l.51.51c-.13-.8.31-1.47,1.02-1.8-.74,1.32-.72,5.63,1.48,4.69,1.23-.53,1.26-1.54,1.35-2.64-.39-.29-.69-1.17-.77-1.67.04-.63,2.46.27,1.61,2.88-.68,2.09-3.08,3.23-5.18,3.16-.05.45.89.28,1.15.25,2.48-.28,5.12-2.06,5.24-4.78.07-1.52-1.43-3.18-1.5-3.87-.13-1.31,4.01-.74,4.85-.49,1.49.45,2,1.23,3.2,1.94.3.18.87.22.9.25.03.03-.22.39-.18.59.07.32,1.07,1.47,1.33,2.23,1.09,3.13,1.02,8.15-1.13,10.78.37-1.2,1.01-2.25,1.21-3.54.04-.28.3-1.13-.19-1.09.04,4.48-4.5,6.52-8.36,6.92-6.92.72-15.88-8.96-19.16-14.41-3.22-5.34-4.69-11-4.36-17.25.04-.69.72-5.14,1.18-5.27h.88c-1.16,3.35-1.17,6.2.02,9.51-.69.04-.92-1-1.53-.12l2.95,3.46c.58-.3-2.67-3.46-1.29-3.33.18.02,1.57,2.56,2.05,3.08,2.12,2.3,5.75,3.68,8.83,4.2.27.05.53-.11.8-.11-.28,1.03-1.04,1.95-1.22,3.01-.28,1.67-.15,3.68.58,5.21.26.54,1.1,2.06,1.68,1.66-2.78-2.42-.82-6.7,1.51-8.74,7.56-6.64,18.36-1.63,20.8,7.43,2.46,9.15-5.12,17.92-14.45,17.6-11.08-.38-20.04-12.27-24.17-21.52-.09-.21-.06-.73-.5-.51-.61.29-1.09,2.47-1.44,3.13-4.32,8.36-13.48,18.91-23.68,19.02-1.53.02-3.39-.78-4.86-.26l-.4-.53v1.28c1.08-.54.87.15,1.53.39,1.07.4,2.64.22,3.78.55l5.47-.96c-.13.72-1.9.62-2.05.77l.26.77c-.67-.57-.98-.58-1.79-.25l.77,1.02-1.16-1.02c-1.21,1.19-1.5,2.73-1.15,4.37.74-.3.94-.06,1.41.51l.12-.51c1.14-.25,1.51.96,2.57,1.02-.08.29-1.24.67-1.47.71-.54.1-1.07.08-1.61.06l.26-1.28-1.03-.26c.15,1.09-.32,1.73,1.02,1.8l-.51.26.77.9-.52.25.26.65.77-.26.13.78c.19-.64.31-.35.86-.49.04.77.27,1.05,1.06,1l-.77.26.77,1.02.25-.51c-.04.54.53.8,1.03.77-.26-.94-.67-1.84-.88-2.79-.14-.6.5-1.04-.66-1.44.97-.33.25-1.88,1.03-2.82-.44.08-.8-.2-1.03-.64h1.01s.26-.77.26-.77l.13.46.35-.17c.44.39.09,1.7.8,1.51l-.51.38,1.29,1.28-.38.65-1.29-1.79c-.49-.24-1,1.22-.12,1.15l-.51.52.77.25-.77.26c.62.71.08,1.45.09,1.79,0,.11.88,1.85.99,2,.45.61.87.5,1.23.84.37.35,1.44,2.59,1.57,2.68l.74-.25.12,1.05c1-.1.9,1.07,1.54,1.54.45.33.87-.07.9-.04.05.06-.09.52.05.71.16.22.62.15.82.29.24.17.03.56.34.8.4.3,1.39.54,1.87.25l-1.02.77c.52.03,1.17.05,1.63.3.61.34,0,.3,1.01.57.65.17.83.5,1.72.15l-.25,1.03,2.68.27.39-.79c-.03,1.03.84,1.5,1.8,1.28l-.77-.25-.25-.51.61-.26,1.05,1.28c.55-.54.99-.48,1.67-.25l.38-1.03-.12,1.02c.7.2,1.46.36,2.2.28.62-.07.16-.59.62-.54l.14.53c.88-.59,2.16-.3,3-.6.5-.18.94-.86,1.49-1.08,1.32-.53,2.94-.96,4.21-1.66,2.12-1.17,3.78-4.01,5.24-5.82l-.51-.5c1.08-.64,1.26-.03,1.52-1.57,1.02-.26,1.45.61,1.94-.62l.26.51c.22-.63.96-.52,1.09-.61.7-.46,1.06-1.52,2.13-1.06l.5-.91-.77-.13c.15-.84,1.36-.78,1.42-1.4.05-.53-.92-1-.4-1.81l.77.26c.25-.32-.46-3.97-.82-4.31-.04-.04-.57.23-.72-.19l.51-.12c0-.77-.7-1.19-.89-.26l-1.95-.63-.24-.91.52.77c.56-.31.96-.17,1.41.25l.12-1.02,1.28.26-1.02.51h1.54s.13-.77.13-.77c.2.86.66.18,1.28.29.47.08.8.55,1.27.49.14-.02.09-.42.31-.5.15-.05,1.05-.04,1.44-.15,3.66-1.12,7.64-3.4,9.57-6.92.48-.87.34-2.19,1.39-2.62-.67-1.09.22-.7.4-1.37.04-.17.46-2.87.47-3.11.13-2.85-.42-6.8-2.18-9.1ZM1660.26,292.03c.21.17.55.47.37.75-.02.03-.36-.07-.57.33-.87,1.65-.34,3.27.85,4.56-2.75-.17-3.19-4.6-.65-5.64ZM1662.97,298.44l.39-.51.64.38-1.02.13ZM1664.66,295.11c-.21,1.53-1.71,2.62-3.23,2.31l2.01-1.09c-.53-1.12.74-1.36.81-1.62.09-.37-1.31-1.61-1.5-2.09-.39-.96.52-.47.99-.34l-.26,1.02h1.02c-.36.71.25,1.14.16,1.8ZM1665.78,296.26c-.84-.85.81-3.98-2.25-5.45-1.4-.67-3.67-.46-3.63-2.77.05-2.5,4.18-5.22,6.47-5.17,1.48.03,4.73,1.64,5.45,2.96.57,1.03,1.48,5.3,1.42,6.56-.11,2.23-1.68,5.25-3.34,6.69-.35.3-.5.48-1.03.38.64-.91,1.59-1.62,2.15-2.6.2-.35,1.44-3.25,1.43-3.44v-4.24s-.97,5.32-.97,5.32c-.19.37-1.64,1.96-1.96,2.15-.8.47-2.83-.01-3.74-.39ZM1644.39,316.7c-.77,0-.07-1.51.38-1.02.16.17-.12,1.02-.38,1.02ZM1655.96,324.39c-.81.03-1.63-.02-2.44,0-.06-.45.58-.24.89-.26.81-.03,1.63.02,2.44,0,.06.45-.58.24-.89.26ZM1669.16,316.54c-.73.87-2.08,2.23-2.95,2.96-.29.24-.42.62-.9.51l4.35-4.37c.11.48-.27.61-.51.9ZM1669.93,315.38c.03-.55.56-1.26,1.02-1.54.01.61-.48,1.29-1.02,1.54ZM1672.49,311.78c.07-.61.46-1.5,1.02-1.8-.07.61-.46,1.5-1.02,1.8ZM1713.8,311.97c1.35,0,2.42,1.29.77,1.8.01-.22.04-.49-.09-.68-.18-.27-.87-.45-.69-1.12ZM1701.55,323.62c1.06.12,2.06.47,3.16.45,1.1-.02,2.11-.54,3.21-.41-2.29,1.06-4.83.66-7.19.14-.06-.48.54-.21.82-.18ZM1693.02,318.93c-.54.07-1.01-.55-1.28-1.02.54-.07,1.01.55,1.28,1.02ZM1689.84,268.62c.06.06.32,1.18.79,1.4-.97.23-.64,1.25-1.01,1.55-.07.06-1.68.63-1.76.6-.03-.01-.03-.38-.23-.46-.69-.28-1.73-.18-1.87-1.18-.14-.99.54-1.76,1.29-.89-.04-.64-.57-1.08.13-1.54.35.57,2.58.42,2.67.52ZM1689.21,275.8l.15.77c-.64-.14-1.04-.58-1.7-.56l1.55-.21ZM1687.82,275.04l1.28-.52c.28.37-.96,1.68-1.28.52ZM1688.43,261.16l.64-.51c-.19,2.83-1.44,1.7-3.06,1.68-.29,0-.5.25-.64.24-.64-.02-1.28-.2-1.94-.11-.19-.81.71-.25,1.36-.57.37-.19.4-.58.63-.72.76-.48,2.7-1.03,3.02,0ZM1686.03,245.82c.51-.44,1.6-.38,2.19-.13,1.47.64-1.68.88-2.12,1.08l-.26-.51c.08-.13.1-.35.2-.44ZM1684.69,246.15c-.67.71-1.44.52-2.31.39.24-.78,2-1.1,2.31-.39ZM1681.86,246.03v.77c-.94,0-.94-.76,0-.77ZM1670.06,245.53l9.75.87.14.66-1.39.54-.03,1.25-.53-1.02c-.57.53-3.12-.67-3.32-.51l.13.77c-1-1.98-4.62-.12-4.75-2.56ZM1669.56,252.34c.56-.28,2.29-.16,2.96,0,.36.08.66.52,1.08.6.3.06.75-.23.82-.18.11.09-.16.59.27.48l.51-.77.39,1.02c.58-.15,1.15-1.69,1.8-.26.44-.77.86-.24,1.26-.26.19,0,.02-.79,1-.46.53.18,1.29,1.42,1.72,1.88l-1.02-.13c-.19.76.61.48.87,1.02.11.23-.44.85.76.52.2-.06.48-1.4,1.32.26l.64-1.02-2.05.26c-.22-.92,1.72-.44,2.02-.8l.03-1-.51.51-.26-1.02.62.26c.24-.62.84-.67,1.05-.01.26-.69,1.04-1.07,1.76-.95.69.11.96.93,1.45,1.2l.52-1.02-.13.51h.87c.06.22.14.42.15.65.04,1.23-1.08.75-1.15,1.66l-.77-.51v.77c-.55-.35-.66-1.13-1.5-1l-.55,1.77-.26-.77-.48.22-.28-.47c-.16,1.15-1.78,1.57-2.57.77l-.16.78c-2.64-.1-5.87.31-8.44,0-2.18-.26-5.72-1.97-3.72-4.5ZM1669.17,261.32c.1-2.27,3.97-.56,4.92-.41,1.68.27,3.55-.06,5.1.16.39.05.77.48,1.15.52.38.04.6-.41.66-.4.2.01.29.62.44.71.38.22,1.26-.03,1.75.05v1.03c-.55-.23-.71.16-.9-.52-.47,1.46-1.95.5-2.83.63-.32.05-1.28,1.14-1.53,1.14-.17,0-.42-.55-.81-.65-.78-.21-2.62-.07-3.5-.18-1.23-.16-4.52-.31-4.44-2.06ZM1674.73,276.6l-1.03-.26c-.15-.65.22-.43.64-.76.4.27.44.55.38,1.02ZM1681.44,300.21c-.54-.09-.35-1.15-.51-1.54.92-.21.4,1.01.51,1.54ZM1681.18,297.13v1.28s-.25,0-.25,0l-.26-1.28h.51ZM1675.13,273.58c-1.47-.09-3.17.03-4.63-.55-1.63-.65-2.97-1.79-2.69-3.72.42-2.91,5.27-.44,6.79-.28.15.01.36-.28.64-.26.86.08,1.72.19,2.58.25l.5,1.66c.42.11.15-.45.38-.52.86-.27.4.76,1.16.52l.25-.51c.17,1.18.54,1.45,1.23.35l-.45-1.64h1.03c-.29,1.09.03,2.08.91,2.82-.04-.63,2.46-.82,2.7-.65l.5,1.67h-1.91s-.27.78-.27.78l-.13-.51-1.03-.26.51.76c-2.67.33-5.39.24-8.07.08ZM1685.77,276.06c-.48.03-1.13.08-1.28-.51.68-.22.97-.22,1.28.51ZM1698.3,301.51c-2.37,1-6.14-.1-8.28-1.43-.84-.52-2.18-1.75-2.71-2.58-.21-.34-.45-1.67-.81-2.22-.18-.28-.32-.51-.7-.48l.51-.38c-.15-.27-.65-.31-.72-.42-.08-.13.14-2.65-.05-3.04.51.1.44.52.51.9.36,1.93.59,3.03,1.7,4.73,3.54,5.42,12.06,5.89,14.86-.52,1.14-2.61,1.03-4.67.13-7.33-2.97-8.71-12.54-11.59-18.6-3.93-.53.66-.35,1.53-1.68,1.27l3.16-4.02c6.23-5.73,15.36-2.17,17.96,5.33.37,1.07.49,2.32.76,3.42.04.14.43.09.43.23-.06,4.16-2.53,8.82-6.45,10.48ZM1686.05,288.13h.25s0,1.28,0,1.28c-.71-.19-.27-.74-.25-1.28ZM1689.37,284.53l-.51-.13c.69-.56,1.95-1.15,2.82-1.32.54-.1.85.15,1.17.13.68-.05.65-.93,1.53.28h.38s.51-.77.51-.77c-.16.96,1.25,1.24,2.06,1.92,1.36,1.15,1.77,2.2,2.3,3.85l-.5.38-.26-.51-.11,1.3c-4.28.45-6.43,2.86-4.76,7.17-7.69,1.57-9.83-7.89-4.63-12.31ZM1687.14,285.64c.13-.18,1.13-.87,1.46-.85-.48.8-1.47,1.26-1.54,2.31-.54.02-.02-1.32.08-1.46ZM1698.11,291.71l-.51.51c3.4.03,2.81,4.44.62,5.62-1.1.59-1.09.09-1.9-.1-.29-.07-.66.12-.72.09-.12-.07-1.5-2.22-1.54-2.45-.1-.52,0-1.03.17-1.51.02-.06.58-1.01.63-1.05.15-.13.51-.02.63-.14.2-.19.04-1.22,1.35-.96l-.26.51,1.54-.51ZM1699.64,290.68h-.51s.12-1.28.12-1.28c.43.31.43.79.39,1.28ZM1661.74,332.6c-.1-1.33,1.03-1.27.51,0h-.51ZM1683.89,351.23c-1.02.25-2.2.15-2.96.34-.21.05-.14.53-.3.53-.35-.02-.57-.39-.96-.45-1.09-.17-2.56.03-3.57-.13-1.02-.15-3.93-1.42-4.51-1.14-.09.04-.08.72-.83.44l.4-1.03c-2.06-.8-3.29-2.49-4.75-3.99-.46-.47-1.29-1.61-1.82-1.98-.22-.16-.96-.25-1.28-.44l.75-.63c-2.03-3.45-2.7-6.75-.52-10.29,1.14-1.86,4.08-4.28,6.29-4.5,4.1-.4,6.22,3.8,3.99,6.93.55.5,1.81-1.94,1.92-2.31.78-2.51.09-5.12-2.07-6.68-.8-.58-1.68-.65-2.3-1.05-.46-.3.05-.72-.65-.87,2.12-2.3,4.71-4.73,5.9-7.59l.46.21c.34-.22.85-1.93,1.09-2.32.24-.39,1.19-1.64,1.62-1.5.44.14.92,1.42.99,1.48.16.14.58,0,.67.09.16.16-.07.73.07.96.11.18.79.16.96.33.02.02-.14.41-.02.65.66,1.36,1.93,2.23,2.88,3.36.84,1,1.65,2.24,2.3,3.01.66.77,1.46,1.48,2.08,2.31-.57.67-2.22-.99-2.31-.9.23,1.05-.83.89-1.52,1.43-2.21,1.73-3.19,3.66-2.82,6.53l.89-2.57.26,1.28c3.28-5.34,9.63-2.38,11.91,2.2,3.63,7.32-5.42,16.58-12.2,18.28ZM1675.34,330.27h.25s0,1.54,0,1.54h-.25s0-1.54,0-1.54ZM1698.45,342.04c.14-.51.55-.58,1.03-.51-.14.51-.55.58-1.03.51Z"/>
        <path class="cls-1" d="M1666.35,330.82c1.85-1.59,5.5-2.99,6.88-.13,1.96,4.07-3.21,5.74-3.05.74-1.77-1.08-.97,2.45-.38,3.34l-1.65-.78-1.68,2.21.49.23c-1.79,4.6,5.99,9.33,9.65,9.64,5.62.48,13.06-.8,15.27-6.71l.51,1.02c.77-1.64.93-4.98-.63-6.18-.98-.74-1.98,1.33-3.22,1.05.71-1.45,1.68-2.85.25-4.25l-.77.14c.16,1.34.91,2.83-.38,3.85l-.12-.51c-3.43.5-2.99-4.83-.34-5.33,3.47-.65,6.42,2.07,7.66,5.06.09.22-.12.5-.06.72.01.04.37.05.41.25,2.11,9.95-10.21,16.79-19,15.18-8.18-1.49-18-12.54-9.83-19.54Z"/>
      </g>
      <path class="cls-1" d="M1631.53,25.39c.04.54.45,3.46.64,3.71.28.38,2.51.67,3.14.73.88.09,5.89.13,6.21.35.37.25.16,2.37.19,2.95.03.46.21.89.22,1.35.03.84-.4,2.76.1,3.24.51.49,4.92.02,6,.46l-.19,8.67c-.31.91-5.24.01-5.76,1.03l-.27,7.42-7.83-.09c-.06,0-.25-.18-.56-.17-1.05.04-1.33.94-1.38,1.8-.16,2.99-.26,8.84.28,11.71.61,3.27,3.99,2.75,6.6,2.93,7.7.53,15.46.46,23.17.86.96.05,6.09-.06,6.41.6.11.22.2,1.01.22,1.31.32,4.17-.04,8.86.04,13.1.5,27.67,1.05,55.6,1.36,83.23.03,2.4.18,5.62-.27,7.93-.04.21-.1.39-.16.55,1.22-.13,2.45-.26,3.68-.36,5.57-.44,11.15-.54,16.72-.64,0-.01,0-.03,0-.04-.24-1.84-.07-3.85-.12-5.68-.43-14.58-.2-29.25-.29-43.72-.21-36.33-.59-72.78-.94-108.84-.05-5,.63-10.89,0-15.8-.36-2.85-3.53-3.4-5.99-3.7-3.41-.42-10.83-.64-13.69,1.13-1.48.92-1.53,2.5-1.63,4.07-.14,2.3.23,4.64-.2,6.91-3.36.7-6.82.38-10.25.48-6.96.21-13.88.7-20.72-.03-.32-.03-.55-.4-.83-.41-.27,0-.61.44-1.02.58-.49.16-1.02-.02-1.3.09-.06.03-1.12.67-1.17.72-.61.56-.65,2.91-.66,3.76-.02,2.3.06,5.46.24,7.8Z"/>
      <path class="cls-1" d="M126.38,186.91h20.17c-5.04,37.54-38.4,66.03-77.57,63.58C31.72,248.16,1.82,217.76.08,180.47c-1.97-42.2,31.83-76.91,73.59-76.91,37.11,0,68.03,27.7,72.87,63.46h-20.17c-5.18-26.46-29.73-46.15-58.2-43.28-25.77,2.59-46.32,23.55-48.14,49.39-2.21,31.3,22.79,57.62,53.64,57.62,26.08,0,47.86-18.82,52.7-43.83Z"/>
      <path class="cls-1" d="M181.2,88.79h0c5.49,0,9.95,4.45,9.95,9.95v82.82c0,26.73,19.54,48.84,45.13,53.06,4.82.79,8.38,4.93,8.38,9.82v.07c0,6.13-5.48,10.79-11.53,9.83-35.11-5.56-61.87-36.09-61.87-72.77v-82.82c0-5.49,4.45-9.95,9.95-9.95Z"/>
      <path class="cls-1" d="M394.99,249.3h-19.9v-21.78c-14.62,15.5-35.91,24.63-59.04,22.92-37.23-2.76-66.75-33.47-68.09-70.77-1.52-42.31,32.9-76.89,75.05-76.09,40.15.75,71.99,34.23,71.99,74.39v71.34ZM374.98,180.58c2.13-32.43-24.57-59.14-57.01-57.01-26.66,1.75-48.26,23.1-50.04,49.76-2.16,32.42,24.87,59.45,57.29,57.29,26.65-1.78,48.01-23.38,49.76-50.04Z"/>
      <path class="cls-1" d="M409.03,105.17h19.79s.05.02.05.05v71.07c0,30.89,25.71,56.1,56.55,54.36,28.16-1.59,50.47-25.13,50.47-53.69v-71.74s.02-.05.05-.05h19.79s.05.02.05.05v70.99c0,41.35-33.73,75.33-75.07,74.4-39.83-.89-71.75-33.61-71.75-73.66v-71.74s.02-.05.05-.05Z"/>
      <path class="cls-1" d="M706.73,104.9c5.14,0,9.32,4.17,9.32,9.32v62.75c-2.06,41.87-36.3,73.74-73.68,73.68-38.99-.06-70.22-34.97-73.36-77.69-.09-1.27,3.52-1.67,8.25-2.12l1.28-.34c5.31-.5,9.12-3.11,9.23,2.23.65,32.67,26.96,58.24,54.61,58.03,25.62-.19,50.46-22.49,53.72-53.25.04-.35.05-.7.05-1.05v-42.06c0-5.14-4.17-9.32-9.32-9.32h-46.53c-3.25,0-6.27,1.68-7.94,4.46-11.06,18.34-30,31.57-52.14,35-5.63.87-10.72-3.52-10.72-9.22v-1.45c0-4.6,3.35-8.53,7.9-9.2,19.28-2.83,35.04-15.9,41.83-33.75,1.38-3.62,4.83-6.01,8.7-6.01h78.8Z"/>
      <path class="cls-1" d="M739.97,83.93h0c5.49,0,9.95,4.45,9.95,9.95v43.29c0,5.49,4.45,9.95,9.95,9.95h106.75c5.49,0,9.95,4.45,9.95,9.95h0c0,5.49-4.45,9.95-9.95,9.95h-106.75c-5.49,0-9.95,4.45-9.95,9.95h0c0,29.58,23.93,53.78,53.78,53.78,23.63,0,43.72-15.45,50.9-36.94,1.37-4.09,5.15-6.89,9.46-6.89h.07c6.71,0,11.58,6.53,9.5,12.91-9.62,29.53-37.4,50.82-69.93,50.82-40.87,0-73.68-33.07-73.68-73.68v-83.09c0-5.49,4.45-9.95,9.95-9.95Z"/>
      <path class="cls-1" d="M963.95,114.09h0c0,4.89-3.55,9.03-8.38,9.82-25.59,4.21-45.13,26.33-45.13,53.06v62.38c0,5.49-4.45,9.95-9.95,9.95h0c-5.49,0-9.95-4.45-9.95-9.95v-62.38c0-36.66,26.75-66.97,61.83-72.7,6.06-.99,11.57,3.68,11.57,9.82Z"/>
      <path class="cls-1" d="M1124.98,174.52c1.38,42.84-33.79,77.98-76.77,76.04-37.84-1.71-68.49-32.36-70.2-70.2-1.94-42.97,33.2-78.15,76.04-76.77,38.41,1.24,69.68,32.52,70.92,70.93ZM1105,180.58c2.13-32.43-24.57-59.14-57.01-57.01-26.66,1.75-48.26,23.1-50.04,49.76-2.16,32.42,24.87,59.45,57.29,57.29,26.65-1.78,48.01-23.38,49.76-50.04Z"/>
      <path class="cls-1" d="M1310.82,249.3v-92.73c0-17.58-13.5-32.55-31.05-33.59-19.2-1.14-35.09,14.06-35.09,33.01v93.3h-19.9v-92.73c0-16.35-11.66-30.66-27.8-33.23-20.31-3.23-38.08,12.61-38.08,32.65v93.3h-19.9v-93.57c0-29.31,23.66-52.7,52.7-52.7,17.75,0,33.34,8.6,43.02,22.05,10.1-14.02,26.63-22.78,45.33-22,28.47,1.19,50.66,25.2,50.66,53.69v92.53h-19.9Z"/>
      <path class="cls-1" d="M1491.78,249.3h-19.9v-21.78c-14.62,15.5-35.91,24.63-59.04,22.92-37.23-2.76-66.75-33.47-68.09-70.77-1.52-42.31,32.9-76.89,75.05-76.09,40.15.75,71.99,34.23,71.99,74.39v71.34ZM1471.76,180.58c2.13-32.43-24.57-59.14-57.01-57.01-26.66,1.75-48.26,23.1-50.04,49.76-2.16,32.42,24.87,59.45,57.29,57.29,26.65-1.78,48.01-23.38,49.76-50.04Z"/>
      <path class="cls-1" d="M1652.58,249.3h-19.9v-71.29c0-28.09-21.37-52.01-49.38-54.12-31.45-2.38-57.64,22.68-57.64,53.62v71.79h-19.9v-71.15c0-39.77,31.28-73.02,71.03-74.28,41.69-1.32,75.78,32.25,75.78,73.64v71.79Z"/>
      <rect class="cls-1" x="1669.78" y="128.67" width="19.9" height="123.69"/>
      <path class="cls-1" d="M1847.25,249.3h-19.9v-21.78c-14.62,15.5-35.91,24.63-59.04,22.92-37.23-2.76-66.75-33.47-68.09-70.77-1.52-42.31,32.9-76.89,75.05-76.09,40.15.75,71.99,34.23,71.99,74.39v71.34ZM1827.23,180.58c2.13-32.43-24.57-59.14-57.01-57.01-26.66,1.75-48.26,23.1-50.04,49.76-2.16,32.42,24.87,59.45,57.29,57.29,26.65-1.78,48.01-23.38,49.76-50.04Z"/>
      <path class="cls-1" d="M655.08,159.02c4.84,4.79,5.59,12.43,1.71,18.07-1.49,2.17-3.75,3.57-5.56,5.43l3.43,22.99c-.07,1.87.64,4.38-1.88,4.67l-18.38-.06c-1.15-.69-1.66-1.75-1.44-3.1l3.98-24.47c-3.75-3.34-7.48-6.53-7.99-11.93-1.32-14.08,16.48-21.19,26.14-11.62Z"/>
    </g>
  </g>
</svg>